<?xml version="1.0" encoding="utf-8"?>
<!-- Generator: Adobe Illustrator 16.0.0, SVG Export Plug-In . SVG Version: 6.00 Build 0)  -->
<!DOCTYPE svg PUBLIC "-//W3C//DTD SVG 1.1//EN" "http://www.w3.org/Graphics/SVG/1.1/DTD/svg11.dtd">
<svg version="1.1" id="Calque_1" xmlns="http://www.w3.org/2000/svg" xmlns:xlink="http://www.w3.org/1999/xlink" x="0px" y="0px"
	 width="425.2px" height="425.2px" viewBox="0 0 425.2 425.2" enable-background="new 0 0 425.2 425.2" xml:space="preserve">
<g>
	<path d="M35.282,222.341h344.479c1.006,0,1.821-0.814,1.821-1.82c0-1.007-0.815-1.82-1.821-1.82H35.282
		c-1.007,0-1.821,0.813-1.821,1.82C33.461,221.526,34.275,222.341,35.282,222.341z"/>
	<g>
		<path d="M243.875,315.95c-2.952-4.621-1.573-10.776,3.067-13.728l128.279-81.702l-128.279-81.703
			c-4.641-2.951-6.02-9.106-3.067-13.727c2.95-4.621,9.145-5.96,13.746-3.047l141.444,90.089c2.854,1.824,4.602,4.989,4.602,8.387
			s-1.747,6.562-4.602,8.387l-141.444,90.091c-1.67,1.048-3.515,1.555-5.34,1.555C249,320.553,245.777,318.922,243.875,315.95z"/>
	</g>
</g>
<path d="M32.853,229.624h344.719c5.027,0,9.104-4.074,9.104-9.104c0-5.028-4.076-9.104-9.104-9.104H32.853
	c-5.027,0-9.103,4.075-9.103,9.104C23.75,225.55,27.825,229.624,32.853,229.624z"/>
</svg>
