<?xml version="1.0" encoding="utf-8"?>
<!-- Generator: Adobe Illustrator 16.0.0, SVG Export Plug-In . SVG Version: 6.00 Build 0)  -->
<!DOCTYPE svg PUBLIC "-//W3C//DTD SVG 1.1//EN" "http://www.w3.org/Graphics/SVG/1.1/DTD/svg11.dtd">
<svg version="1.1" id="Calque_1" xmlns="http://www.w3.org/2000/svg" xmlns:xlink="http://www.w3.org/1999/xlink" x="0px" y="0px"
	 width="425.2px" height="425.2px" viewBox="0 0 425.2 425.2" enable-background="new 0 0 425.2 425.2" xml:space="preserve">
<path fill="none" stroke="#010202" stroke-width="7" stroke-linecap="round" stroke-linejoin="round" stroke-miterlimit="10" d="
	M173.622,278.068"/>
<path fill="none" stroke="#010202" stroke-width="7" stroke-linecap="round" stroke-linejoin="round" stroke-miterlimit="10" d="
	M165.964,239.276"/>
<path fill="none" stroke="#010202" stroke-width="7" stroke-linecap="round" stroke-linejoin="round" stroke-miterlimit="10" d="
	M293.504,294.131c-2.294,6.217-9.194,9.397-15.411,7.104l-100.384-37.043c-6.217-2.294-9.398-9.194-7.104-15.412l50.892-137.91
	c2.294-6.217,9.194-9.397,15.411-7.104l100.384,37.043c6.217,2.294,9.398,9.195,7.104,15.412L293.504,294.131z"/>
<line fill="none" stroke="#010202" stroke-width="7" stroke-linecap="round" stroke-linejoin="round" stroke-miterlimit="10" x1="234.41" y1="139.42" x2="317.906" y2="170.231"/>
<line fill="none" stroke="#010202" stroke-width="7" stroke-linecap="round" stroke-linejoin="round" stroke-miterlimit="10" x1="227.248" y1="158.827" x2="310.745" y2="189.638"/>
<line fill="none" stroke="#010202" stroke-width="7" stroke-linecap="round" stroke-linejoin="round" stroke-miterlimit="10" x1="220.324" y1="177.59" x2="303.821" y2="208.401"/>
<line fill="none" stroke="#010202" stroke-width="7" stroke-linecap="round" stroke-linejoin="round" stroke-miterlimit="10" x1="213.055" y1="197.291" x2="296.551" y2="228.103"/>
<path fill="#FFFFFF" stroke="#000000" stroke-width="10" stroke-linecap="round" stroke-linejoin="round" stroke-miterlimit="10" d="
	M251.195,310.873c0-44.573-33.337-96.33-74.461-96.33c-41.123,0-74.459,51.757-74.459,96.33H251.195z"/>
<circle fill="#FFFFFF" stroke="#000000" stroke-width="10" stroke-linecap="round" stroke-linejoin="round" stroke-miterlimit="10" cx="176.735" cy="166.119" r="32.804"/>
</svg>
