<?xml version="1.0" encoding="utf-8"?>
<!-- Generator: Adobe Illustrator 16.0.0, SVG Export Plug-In . SVG Version: 6.00 Build 0)  -->
<!DOCTYPE svg PUBLIC "-//W3C//DTD SVG 1.1//EN" "http://www.w3.org/Graphics/SVG/1.1/DTD/svg11.dtd">
<svg version="1.1" id="Calque_1" xmlns="http://www.w3.org/2000/svg" xmlns:xlink="http://www.w3.org/1999/xlink" x="0px" y="0px"
	 width="425.2px" height="425.2px" viewBox="0 0 425.2 425.2" enable-background="new 0 0 425.2 425.2" xml:space="preserve">
<path fill="none" stroke="#010202" stroke-width="7" stroke-linecap="round" stroke-miterlimit="10" d="M193.29,346"/>
<path fill="none" stroke="#010202" stroke-width="7" stroke-linecap="round" stroke-linejoin="round" stroke-miterlimit="10" d="
	M246.382,299.591c0-31.782-23.771-68.687-53.092-68.687c-29.322,0-53.093,36.904-53.093,68.687H246.382z"/>
<circle fill="none" stroke="#010202" stroke-width="7" stroke-linecap="round" stroke-miterlimit="10" cx="193.289" cy="196.376" r="23.391"/>
<path fill="none" stroke="#010202" stroke-width="7" stroke-linecap="round" stroke-linejoin="round" stroke-miterlimit="10" d="
	M240.922,271.931h93.08c0-31.781-23.771-68.685-53.092-68.685c-23.533,0-43.492,23.774-50.455,49.59"/>
<path fill="none" stroke="#010202" stroke-width="7" stroke-linecap="round" stroke-linejoin="round" stroke-miterlimit="10" d="
	M227.817,271.931"/>
<circle fill="none" stroke="#010202" stroke-width="7" stroke-linecap="round" stroke-miterlimit="10" cx="280.911" cy="168.717" r="23.39"/>
<path fill="none" stroke="#010202" stroke-width="7" stroke-linecap="round" stroke-linejoin="round" stroke-miterlimit="10" d="
	M99.11,128.434c0,7.382,5.985,13.366,13.366,13.366l84.11,0.983l48.805,35.772c7.382,0-28.959-33.83-28.959-41.211V85.365
	c0-7.382-5.984-13.366-13.366-13.366h-90.591c-7.381,0-13.366,5.984-13.366,13.366V128.434z"/>
</svg>
