<?xml version="1.0" encoding="utf-8"?>
<!-- Generator: Adobe Illustrator 16.0.0, SVG Export Plug-In . SVG Version: 6.00 Build 0)  -->
<!DOCTYPE svg PUBLIC "-//W3C//DTD SVG 1.1//EN" "http://www.w3.org/Graphics/SVG/1.1/DTD/svg11.dtd">
<svg version="1.1" id="Calque_1" xmlns="http://www.w3.org/2000/svg" xmlns:xlink="http://www.w3.org/1999/xlink" x="0px" y="0px"
	 width="425.2px" height="425.2px" viewBox="0 0 425.2 425.2" enable-background="new 0 0 425.2 425.2" xml:space="preserve">
<path fill="none" stroke="#000000" stroke-width="10" stroke-linecap="round" stroke-linejoin="round" stroke-miterlimit="10" d="
	M329.584,364.084c0,6.627-5.373,12-12,12H112.095c-6.627,0-12-5.373-12-12V158.595c0-6.627,5.373-12,12-12h205.489
	c6.627,0,12,5.373,12,12V364.084z"/>
<path fill="none" stroke="#000000" stroke-width="10" stroke-linecap="round" stroke-linejoin="round" stroke-miterlimit="10" d="
	M215.591,242.094"/>
<path fill="none" stroke="#000000" stroke-width="10" stroke-linecap="round" stroke-linejoin="round" stroke-miterlimit="10" d="
	M133.095,143.981c0-52.402,36.935-94.883,82.496-94.883s82.496,42.48,82.496,94.883"/>
<path fill="none" stroke="#000000" stroke-width="10" stroke-linecap="round" stroke-linejoin="round" stroke-miterlimit="10" d="
	M150.428,146.245c0-40.214,25.86-78.084,65.163-78.084c39.303,0,64.163,37.871,64.163,78.084"/>
<path fill="none" stroke="#000000" stroke-width="10" stroke-linecap="round" stroke-linejoin="round" stroke-miterlimit="10" d="
	M229,278c0,6.627-5.373,12-12,12h-6c-6.627,0-12-5.373-12-12v-36.906c0-6.627,5.373-12,12-12h6c6.627,0,12,5.373,12,12V278z"/>
</svg>
