<?xml version="1.0" encoding="utf-8"?>
<!-- Generator: Adobe Illustrator 16.0.0, SVG Export Plug-In . SVG Version: 6.00 Build 0)  -->
<!DOCTYPE svg PUBLIC "-//W3C//DTD SVG 1.1//EN" "http://www.w3.org/Graphics/SVG/1.1/DTD/svg11.dtd">
<svg version="1.1" id="Calque_1" xmlns="http://www.w3.org/2000/svg" xmlns:xlink="http://www.w3.org/1999/xlink" x="0px" y="0px"
	 width="425.2px" height="425.2px" viewBox="0 0 425.2 425.2" enable-background="new 0 0 425.2 425.2" xml:space="preserve">
<path fill="none" stroke="#010202" stroke-width="7" stroke-linecap="round" stroke-linejoin="round" stroke-miterlimit="10" d="
	M213.622,298.068"/>
<path fill="none" stroke="#010202" stroke-width="7" stroke-linecap="round" stroke-linejoin="round" stroke-miterlimit="10" d="
	M145.061,298.068h-80.36c0-44.573,33.336-96.33,74.459-96.33c23.279,0,42.66,15.182,56.314,37.661"/>
<circle fill="none" stroke="#010202" stroke-width="7" stroke-linecap="round" stroke-miterlimit="10" cx="139.161" cy="153.314" r="32.805"/>
<path fill="none" stroke="#010202" stroke-width="7" stroke-linecap="round" stroke-linejoin="round" stroke-miterlimit="10" d="
	M291.195,330.873c0-44.573-33.337-96.33-74.461-96.33c-41.123,0-74.459,51.757-74.459,96.33H291.195z"/>
<circle fill="none" stroke="#010202" stroke-width="7" stroke-linecap="round" stroke-miterlimit="10" cx="216.735" cy="186.119" r="32.804"/>
<path fill="none" stroke="#010202" stroke-width="7" stroke-linecap="round" stroke-linejoin="round" stroke-miterlimit="10" d="
	M191.285,232.496c1.981-7.347,3.311-11.77,6.682-18.626"/>
<path fill="none" stroke="#010202" stroke-width="7" stroke-linecap="round" stroke-linejoin="round" stroke-miterlimit="10" d="
	M266.609,259.276h69.896c0-44.572-33.337-96.328-74.46-96.328c-6.536,0-12.877,1.308-18.918,3.687"/>
<path fill="none" stroke="#010202" stroke-width="7" stroke-linecap="round" stroke-linejoin="round" stroke-miterlimit="10" d="
	M205.964,259.276"/>
<circle fill="none" stroke="#010202" stroke-width="7" stroke-linecap="round" stroke-miterlimit="10" cx="262.047" cy="114.522" r="32.804"/>
</svg>
