<?xml version="1.0" encoding="utf-8"?>
<!-- Generator: Adobe Illustrator 16.0.0, SVG Export Plug-In . SVG Version: 6.00 Build 0)  -->
<!DOCTYPE svg PUBLIC "-//W3C//DTD SVG 1.1//EN" "http://www.w3.org/Graphics/SVG/1.1/DTD/svg11.dtd">
<svg version="1.1" id="Calque_1" xmlns="http://www.w3.org/2000/svg" xmlns:xlink="http://www.w3.org/1999/xlink" x="0px" y="0px"
	 width="425.2px" height="425.2px" viewBox="0 0 425.2 425.2" enable-background="new 0 0 425.2 425.2" xml:space="preserve">
<g>
	<path d="M47.653,228.701h134.244c-8.953,0.119-17.907,0.223-26.861,0.299c-2.479,0.021-4.002,1.516-4.574,3.342H47.653
		c-1.006,0-1.821-0.814-1.821-1.82C45.832,229.515,46.647,228.701,47.653,228.701z"/>
	<g>
		<path d="M183.54,325.951c2.952-4.621,1.573-10.776-3.067-13.728L52.193,230.521l128.279-81.702
			c4.641-2.951,6.02-9.106,3.067-13.728c-2.95-4.62-9.145-5.96-13.746-3.047L28.35,222.135c-2.854,1.824-4.602,4.988-4.602,8.387
			s1.747,6.562,4.602,8.387l141.444,90.091c1.67,1.048,3.515,1.555,5.34,1.555C178.415,330.554,181.638,328.923,183.54,325.951z"/>
	</g>
</g>
<path stroke="#000000" stroke-width="6" stroke-linecap="round" stroke-linejoin="round" stroke-miterlimit="10" d="
	M393.955,117.031c0,0-118.271,106.479-341.762,106.479v15.521C52.193,239.031,244.58,266.404,393.955,117.031z"/>
</svg>
