<?xml version="1.0" encoding="utf-8"?>
<!-- Generator: Adobe Illustrator 16.0.0, SVG Export Plug-In . SVG Version: 6.00 Build 0)  -->
<!DOCTYPE svg PUBLIC "-//W3C//DTD SVG 1.1//EN" "http://www.w3.org/Graphics/SVG/1.1/DTD/svg11.dtd">
<svg version="1.1" id="Calque_1" xmlns="http://www.w3.org/2000/svg" xmlns:xlink="http://www.w3.org/1999/xlink" x="0px" y="0px"
	 width="425.2px" height="425.2px" viewBox="0 0 425.2 425.2" enable-background="new 0 0 425.2 425.2" xml:space="preserve">
<path fill="#010202" d="M199.928,378.888c-9.272,0-17.988-3.608-24.548-10.169c-2.874-2.873-2.874-7.531,0-10.405
	c2.871-2.878,7.531-2.878,10.41,0c3.776,3.777,8.8,5.855,14.139,5.855c10.493,0,19.115-8.121,19.932-18.406
	c-0.042-0.178-0.074-0.359-0.105-0.543c-5.405-37.909,7.715-59.519,20.413-80.411c11.041-18.177,22.465-36.97,24.351-68.762
	c-0.111-42.088-34.39-76.291-76.499-76.291c-42.193,0-76.504,34.316-76.504,76.5c0,4.063-3.296,7.359-7.359,7.359
	c-4.064,0-7.36-3.296-7.36-7.365c0-50.305,40.923-91.222,91.229-91.222c50.294,0,91.217,40.917,91.217,91.222
	c0,0.141,0,0.287-0.017,0.424c-2.057,35.585-15.025,56.938-26.471,75.772c-12.159,20.025-22.704,37.366-18.65,68.94
	c0.35,0.855,0.542,1.802,0.542,2.784C234.646,363.312,219.064,378.888,199.928,378.888z"/>
<path fill="#010202" d="M246.721,210.795c-4.057,0-7.353-3.289-7.353-7.353c0-28.315-23.034-51.35-51.344-51.35
	c-28.321,0-51.355,23.034-51.355,51.35c0,4.064-3.286,7.353-7.354,7.353c-4.07,0-7.355-3.289-7.355-7.353
	c0-36.426,29.632-66.063,66.064-66.063c36.427,0,66.063,29.641,66.063,66.063C254.088,207.506,250.792,210.795,246.721,210.795z"/>
<path fill="#010202" d="M332.037,158.668c-13.741-50.305-55.699-89.118-106.888-98.891l2.769-14.463
	c28.008,5.355,53.93,18.485,74.938,37.983c20.908,19.406,35.909,44.126,43.389,71.496L332.037,158.668z"/>
<path fill="#010202" d="M302.291,168.827c-10.368-40.902-43.948-71.792-85.541-78.719l2.408-14.514
	c47.364,7.882,85.598,43.049,97.403,89.615L302.291,168.827z"/>
<path fill="#010202" d="M169.355,321.225c-11.987-3.84-9.469-15.895-7.04-27.548c3.775-18.088,8.049-38.583-22.351-51.995
	c-2.099-0.931-3.06-3.385-2.13-5.501c0.93-2.115,3.395-3.05,5.5-2.131c36.573,16.139,30.905,43.337,27.15,61.331
	c-2.648,12.67-2.778,16.558,1.416,17.903c2.198,0.706,3.405,3.052,2.7,5.245C173.895,320.723,171.55,321.936,169.355,321.225z"/>
</svg>
