<?xml version="1.0" encoding="utf-8"?>
<!-- Generator: Adobe Illustrator 16.0.0, SVG Export Plug-In . SVG Version: 6.00 Build 0)  -->
<!DOCTYPE svg PUBLIC "-//W3C//DTD SVG 1.1//EN" "http://www.w3.org/Graphics/SVG/1.1/DTD/svg11.dtd">
<svg version="1.1" id="Calque_1" xmlns="http://www.w3.org/2000/svg" xmlns:xlink="http://www.w3.org/1999/xlink" x="0px" y="0px"
	 width="425.2px" height="425.2px" viewBox="0 0 425.2 425.2" enable-background="new 0 0 425.2 425.2" xml:space="preserve">
<path fill="none" stroke="#000000" stroke-width="10" stroke-miterlimit="10" d="M100.333,110.333"/>
<path fill="none" stroke="#000000" stroke-width="10" stroke-miterlimit="10" d="M88.333,138.333v184.698
	c0,7.714,5.373,13.969,12,13.969h217.333c6.627,0,12-6.255,12-13.969V138.333"/>
<path fill="none" stroke="#000000" stroke-width="10" stroke-miterlimit="10" d="M317.667,160.333"/>
<path fill="none" stroke="#000000" stroke-width="10" stroke-miterlimit="10" d="M340.333,135.875c0,1.38-5.874,2.499-13.118,2.499
	H89.619c-7.245,0-13.119-1.119-13.119-2.499V99.499c0-1.38,5.874-2.499,13.119-2.499h237.596c7.244,0,13.118,1.119,13.118,2.499
	V135.875z"/>
<path fill="none" stroke="#000000" stroke-width="10" stroke-miterlimit="10" d="M275,188.5c0,6.351-5.148,11.5-11.5,11.5h-106
	c-6.351,0-11.5-5.149-11.5-11.5l0,0c0-6.351,5.149-11.5,11.5-11.5h106C269.852,177,275,182.149,275,188.5L275,188.5z"/>
</svg>
