<?xml version="1.0" encoding="utf-8"?>
<!-- Generator: Adobe Illustrator 16.0.0, SVG Export Plug-In . SVG Version: 6.00 Build 0)  -->
<!DOCTYPE svg PUBLIC "-//W3C//DTD SVG 1.1//EN" "http://www.w3.org/Graphics/SVG/1.1/DTD/svg11.dtd">
<svg version="1.1" id="Calque_1" xmlns="http://www.w3.org/2000/svg" xmlns:xlink="http://www.w3.org/1999/xlink" x="0px" y="0px"
	 width="425.2px" height="425.2px" viewBox="0 0 425.2 425.2" enable-background="new 0 0 425.2 425.2" xml:space="preserve">
<line fill="none" stroke="#010202" stroke-width="10" stroke-linecap="round" stroke-linejoin="round" stroke-miterlimit="10" x1="139.518" y1="258.983" x2="139.518" y2="358.106"/>
<line fill="none" stroke="#010202" stroke-width="10" stroke-linecap="round" stroke-linejoin="round" stroke-miterlimit="10" x1="139.518" y1="70.333" x2="139.518" y2="191.836"/>
<path fill="none" stroke="#010202" stroke-width="10" stroke-linecap="round" stroke-linejoin="round" stroke-miterlimit="10" d="
	M158.703,239.801c0,10.594-8.589,19.185-19.185,19.185l0,0c-10.595,0-19.185-8.591-19.185-19.185v-28.779
	c0-10.596,8.589-19.185,19.185-19.185l0,0c10.596,0,19.185,8.589,19.185,19.185V239.801z"/>
<line fill="none" stroke="#010202" stroke-width="10" stroke-linecap="round" stroke-linejoin="round" stroke-miterlimit="10" x1="211.282" y1="190.479" x2="207.468" y2="359.923"/>
<line fill="none" stroke="#010202" stroke-width="10" stroke-linecap="round" stroke-linejoin="round" stroke-miterlimit="10" x1="210.167" y1="70.333" x2="210.167" y2="123.319"/>
<path fill="none" stroke="#010202" stroke-width="10" stroke-linecap="round" stroke-linejoin="round" stroke-miterlimit="10" d="
	M229.353,171.283c0,10.594-8.59,19.185-19.186,19.185l0,0c-10.595,0-19.185-8.59-19.185-19.185v-28.779
	c0-10.595,8.589-19.185,19.185-19.185l0,0c10.596,0,19.186,8.589,19.186,19.185V171.283z"/>
<line fill="none" stroke="#010202" stroke-width="10" stroke-linecap="round" stroke-linejoin="round" stroke-miterlimit="10" x1="283.709" y1="317.757" x2="283.709" y2="358.106"/>
<line fill="none" stroke="#010202" stroke-width="10" stroke-linecap="round" stroke-linejoin="round" stroke-miterlimit="10" x1="283.709" y1="70.333" x2="283.709" y2="248.935"/>
<path fill="none" stroke="#010202" stroke-width="10" stroke-linecap="round" stroke-linejoin="round" stroke-miterlimit="10" d="
	M302.895,296.898c0,10.594-8.589,19.185-19.186,19.185l0,0c-10.595,0-19.185-8.591-19.185-19.185v-28.779
	c0-10.595,8.59-19.185,19.185-19.185l0,0c10.597,0,19.186,8.59,19.186,19.185V296.898z"/>
</svg>
