<?xml version="1.0" encoding="utf-8"?>
<!-- Generator: Adobe Illustrator 16.0.0, SVG Export Plug-In . SVG Version: 6.00 Build 0)  -->
<!DOCTYPE svg PUBLIC "-//W3C//DTD SVG 1.1//EN" "http://www.w3.org/Graphics/SVG/1.1/DTD/svg11.dtd">
<svg version="1.1" id="Calque_1" xmlns="http://www.w3.org/2000/svg" xmlns:xlink="http://www.w3.org/1999/xlink" x="0px" y="0px"
	 width="425.2px" height="425.2px" viewBox="0 0 425.2 425.2" enable-background="new 0 0 425.2 425.2" xml:space="preserve">
<rect x="120.595" y="123.595" fill="none" stroke="#000000" stroke-width="10" stroke-linecap="round" stroke-linejoin="round" stroke-miterlimit="10" width="184.815" height="237.405"/>
<line fill="none" stroke="#000000" stroke-width="10" stroke-linecap="round" stroke-linejoin="round" stroke-miterlimit="10" x1="164.169" y1="152.144" x2="164.169" y2="335.456"/>
<line fill="none" stroke="#000000" stroke-width="10" stroke-linecap="round" stroke-linejoin="round" stroke-miterlimit="10" x1="213.003" y1="152.144" x2="213.003" y2="335.456"/>
<line fill="none" stroke="#000000" stroke-width="10" stroke-linecap="round" stroke-linejoin="round" stroke-miterlimit="10" x1="264.841" y1="152.144" x2="264.841" y2="335.456"/>
<path fill="none" stroke="#000000" stroke-width="10" stroke-linecap="round" stroke-linejoin="round" stroke-miterlimit="10" d="
	M211.5,162.662"/>
<path fill="none" stroke="#000000" stroke-width="10" stroke-linecap="round" stroke-linejoin="round" stroke-miterlimit="10" d="
	M176.977,92.041C176.977,78.764,193.329,68,213.5,68c20.172,0,36.523,10.764,36.523,24.041"/>
<path fill="none" stroke="#000000" stroke-width="10" stroke-linecap="round" stroke-linejoin="round" stroke-miterlimit="10" d="
	M192.175,97.657c0-7.708,9.544-11.958,21.317-11.958c11.772,0,21.316,4.25,21.316,11.958"/>
<path fill="none" stroke="#000000" stroke-width="10" stroke-linecap="round" stroke-linejoin="round" stroke-miterlimit="10" d="
	M316.929,114.301c0,4.489-7.517,8.126-16.794,8.126h-177.27c-9.275,0-16.794-3.637-16.794-8.126v-8.125
	c0-4.488,7.519-8.125,16.794-8.125h177.27c9.277,0,16.794,3.637,16.794,8.125V114.301z"/>
</svg>
