<?xml version="1.0" encoding="utf-8"?>
<!-- Generator: Adobe Illustrator 16.0.0, SVG Export Plug-In . SVG Version: 6.00 Build 0)  -->
<!DOCTYPE svg PUBLIC "-//W3C//DTD SVG 1.1//EN" "http://www.w3.org/Graphics/SVG/1.1/DTD/svg11.dtd">
<svg version="1.1" id="Calque_1" xmlns="http://www.w3.org/2000/svg" xmlns:xlink="http://www.w3.org/1999/xlink" x="0px" y="0px"
	 width="612px" height="634.5px" viewBox="0 0 612 634.5" enable-background="new 0 0 612 634.5" xml:space="preserve">
<g>
	<path d="M306.019,610.2c-6.935,0-13.152-4.241-15.759-10.704L154.396,260.35c-2.105-5.269-1.475-11.254,1.67-15.961
		c3.176-4.712,8.446-7.527,14.083-7.527h271.734c5.636,0,10.911,2.821,14.082,7.527c3.151,4.712,3.775,10.698,1.671,15.961
		L321.771,599.496C319.164,605.959,312.952,610.2,306.019,610.2z M195.308,271.054l110.711,276.336l110.704-276.336H195.308z"/>
</g>
<g>
	<path d="M442.28,271.054H169.72c-6.787,0-12.919-4.076-15.612-10.355c-8.856-20.777-13.348-42.828-13.348-65.521
		c0-91.739,74.138-166.378,165.259-166.378c91.103,0,165.222,74.64,165.222,166.378c0,22.693-4.498,44.744-13.36,65.527
		C455.199,266.978,449.067,271.054,442.28,271.054z M181.409,236.855h249.182c4.449-13.403,6.684-27.381,6.684-41.683
		c0-72.883-58.875-132.174-131.25-132.174c-72.399,0-131.292,59.291-131.292,132.174
		C174.726,209.475,176.966,223.453,181.409,236.855z"/>
</g>
<g>
	<path d="M306.019,407.86c-9.388,0-16.983-7.649-16.983-17.105v-136.8c0-9.443,7.595-17.1,16.983-17.1
		c9.382,0,16.977,7.656,16.977,17.1v136.8C322.995,400.211,315.4,407.86,306.019,407.86z"/>
</g>
<g>
	<path d="M362.01,316.997c-9.394,0-16.988-7.65-16.988-17.1v-45.942c0-9.443,7.595-17.1,16.988-17.1
		c9.383,0,16.978,7.656,16.978,17.1v45.937C378.993,309.347,371.398,316.997,362.01,316.997z"/>
</g>
</svg>
