<?xml version="1.0" encoding="utf-8"?>
<!-- Generator: Adobe Illustrator 16.0.0, SVG Export Plug-In . SVG Version: 6.00 Build 0)  -->
<!DOCTYPE svg PUBLIC "-//W3C//DTD SVG 1.1//EN" "http://www.w3.org/Graphics/SVG/1.1/DTD/svg11.dtd">
<svg version="1.1" id="Calque_1" xmlns="http://www.w3.org/2000/svg" xmlns:xlink="http://www.w3.org/1999/xlink" x="0px" y="0px"
	 width="425.2px" height="425.2px" viewBox="0 0 425.2 425.2" enable-background="new 0 0 425.2 425.2" xml:space="preserve">
<path fill="#FFFFFF" stroke="#000000" stroke-width="10" stroke-miterlimit="10" d="M237.412,315.521
	c-4.463,7.235-13.947,9.485-21.185,5.022l-97.193-59.935c-7.237-4.462-9.485-13.948-5.023-21.186L227.146,55.959
	c4.464-7.239,13.948-9.487,21.187-5.024l97.191,59.935c7.239,4.463,9.487,13.949,5.024,21.186L237.412,315.521z"/>
<path fill="#FFFFFF" stroke="#000000" stroke-width="10" stroke-miterlimit="10" d="M242.824,336.358
	c-1.937,8.277-10.218,13.42-18.497,11.484l-111.185-26.011c-8.279-1.937-13.421-10.219-11.484-18.498l49.098-209.876
	c1.937-8.279,10.219-13.42,18.499-11.484l111.185,26.011c8.277,1.936,13.42,10.219,11.485,18.498L242.824,336.358z"/>
<path fill="#FFFFFF" stroke="#000000" stroke-width="10" stroke-miterlimit="10" d="M237.543,350.604
	c0,8.503-6.893,15.396-15.396,15.396H107.961c-8.503,0-15.396-6.894-15.396-15.396V135.062c0-8.503,6.893-15.396,15.396-15.396
	h114.185c8.504,0,15.396,6.893,15.396,15.396V350.604z"/>
<path fill="none" stroke="#000000" stroke-width="5" stroke-linecap="round" stroke-linejoin="round" stroke-miterlimit="10" d="
	M162.216,262.616c-13.939-7.259-31.479-23.13-23.302-40.878c0.9-1.686,2.679-4.204,4.412-5.014s4.297-0.742,6.007-0.694
	c5.107,0.992,8.435,4.504,11.779,8.418"/>
<path fill="none" stroke="#000000" stroke-width="5" stroke-linecap="round" stroke-linejoin="round" stroke-miterlimit="10" d="
	M161.875,224.77c3.234-4.005,6.463-7.607,11.541-8.741c1.708-0.093,4.27-0.233,6.024,0.527c1.755,0.76,3.603,3.229,4.55,4.891
	c8.666,17.514-7.574,33.864-21.305,41.507"/>
</svg>
