<?xml version="1.0" encoding="utf-8"?>
<!-- Generator: Adobe Illustrator 16.0.0, SVG Export Plug-In . SVG Version: 6.00 Build 0)  -->
<!DOCTYPE svg PUBLIC "-//W3C//DTD SVG 1.1//EN" "http://www.w3.org/Graphics/SVG/1.1/DTD/svg11.dtd">
<svg version="1.1" id="Calque_1" xmlns="http://www.w3.org/2000/svg" xmlns:xlink="http://www.w3.org/1999/xlink" x="0px" y="0px"
	 width="425.2px" height="425.2px" viewBox="0 0 425.2 425.2" enable-background="new 0 0 425.2 425.2" xml:space="preserve">
<path fill="none" stroke="#000000" stroke-width="10" stroke-linecap="round" stroke-linejoin="round" stroke-miterlimit="10" d="
	M329.584,364.084c0,6.627-5.373,12-12,12H112.095c-6.627,0-12-5.373-12-12V158.595c0-6.627,5.373-12,12-12h205.489
	c6.627,0,12,5.373,12,12V364.084z"/>
<path fill="none" stroke="#000000" stroke-width="10" stroke-linecap="round" stroke-linejoin="round" stroke-miterlimit="10" d="
	M215.591,242.094"/>
<path fill="none" stroke="#000000" stroke-width="10" stroke-linecap="round" stroke-linejoin="round" stroke-miterlimit="10" d="
	M158.859,142.168c-12.56-38.202,0.178-82.255,37.514-94.531c37.336-12.276,72.782,15.936,85.341,54.137l16.709-7.877
	c-16.367-49.781-64.722-78.6-108.004-64.369c-43.282,14.23-65.101,66.122-48.733,115.902"/>
<path fill="none" stroke="#000000" stroke-width="10" stroke-linecap="round" stroke-linejoin="round" stroke-miterlimit="10" d="
	M229,278c0,6.627-5.373,12-12,12h-6c-6.627,0-12-5.373-12-12v-36.906c0-6.627,5.373-12,12-12h6c6.627,0,12,5.373,12,12V278z"/>
</svg>
