<?xml version="1.0" encoding="utf-8"?>
<!-- Generator: Adobe Illustrator 16.0.0, SVG Export Plug-In . SVG Version: 6.00 Build 0)  -->
<!DOCTYPE svg PUBLIC "-//W3C//DTD SVG 1.1//EN" "http://www.w3.org/Graphics/SVG/1.1/DTD/svg11.dtd">
<svg version="1.1" id="Calque_1" xmlns="http://www.w3.org/2000/svg" xmlns:xlink="http://www.w3.org/1999/xlink" x="0px" y="0px"
	 width="425.2px" height="425.2px" viewBox="0 0 425.2 425.2" enable-background="new 0 0 425.2 425.2" xml:space="preserve">
<g>
	<path d="M392.135,218.718H47.655c-1.006,0-1.821,0.814-1.821,1.82c0,1.007,0.815,1.82,1.821,1.82h344.479
		c1.007,0,1.821-0.813,1.821-1.82C393.956,219.532,393.142,218.718,392.135,218.718z"/>
	<g>
		<path d="M183.542,125.108c2.952,4.621,1.573,10.776-3.067,13.728L52.195,220.538l128.279,81.702
			c4.641,2.951,6.02,9.106,3.067,13.728c-2.95,4.62-9.145,5.96-13.746,3.047l-141.444-90.09c-2.854-1.824-4.602-4.988-4.602-8.387
			s1.747-6.562,4.602-8.387l141.444-90.091c1.67-1.048,3.515-1.555,5.34-1.555C178.417,120.506,181.64,122.137,183.542,125.108z"/>
	</g>
</g>
<path d="M394.564,211.435H49.846c-5.027,0-9.104,4.074-9.104,9.104c0,5.028,4.076,9.104,9.104,9.104h344.719
	c5.027,0,9.103-4.075,9.103-9.104C403.667,215.509,399.592,211.435,394.564,211.435z"/>
</svg>
