<?xml version="1.0" encoding="utf-8"?>
<!-- Generator: Adobe Illustrator 16.0.0, SVG Export Plug-In . SVG Version: 6.00 Build 0)  -->
<!DOCTYPE svg PUBLIC "-//W3C//DTD SVG 1.1//EN" "http://www.w3.org/Graphics/SVG/1.1/DTD/svg11.dtd">
<svg version="1.1" id="Calque_1" xmlns="http://www.w3.org/2000/svg" xmlns:xlink="http://www.w3.org/1999/xlink" x="0px" y="0px"
	 width="425.2px" height="425.2px" viewBox="0 0 425.2 425.2" enable-background="new 0 0 425.2 425.2" xml:space="preserve">
<g>
	<path d="M211.823,107.92v147.561c0,0.431,0.348,0.78,0.78,0.78c0.431,0,0.779-0.35,0.779-0.78V107.92
		c0-0.432-0.348-0.78-0.779-0.78C212.172,107.14,211.823,107.489,211.823,107.92z"/>
	<g>
		<path d="M171.725,197.273c1.98-1.266,4.616-0.674,5.88,1.313l34.998,54.95l34.999-54.95c1.264-1.988,3.9-2.579,5.88-1.313
			c1.979,1.263,2.553,3.917,1.305,5.888l-38.59,60.589c-0.781,1.223-2.138,1.971-3.593,1.971c-1.455,0-2.811-0.748-3.592-1.971
			l-38.592-60.589c-0.449-0.715-0.666-1.506-0.666-2.288C169.752,199.469,170.451,198.088,171.725,197.273z"/>
	</g>
</g>
<path d="M208.703,106.879v147.664c0,2.153,1.746,3.899,3.9,3.899c2.153,0,3.9-1.746,3.9-3.899V106.879
	c0-2.153-1.746-3.899-3.9-3.899C210.449,102.98,208.703,104.726,208.703,106.879z"/>
<path fill="none" stroke="#000000" stroke-width="10" stroke-miterlimit="10" d="M106.1,222.1"/>
<path fill="none" stroke="#000000" stroke-width="10" stroke-linecap="round" stroke-miterlimit="10" d="M317.1,230.583v65.035
	c0,4.685-4.77,8.482-10.652,8.482H118.252c-5.883,0-10.652-3.798-10.652-8.482v-65.035"/>
<path fill="none" stroke="#000000" stroke-width="10" stroke-miterlimit="10" d="M318.1,222.1"/>
</svg>
