<?xml version="1.0" encoding="utf-8"?>
<!-- Generator: Adobe Illustrator 16.0.0, SVG Export Plug-In . SVG Version: 6.00 Build 0)  -->
<!DOCTYPE svg PUBLIC "-//W3C//DTD SVG 1.1//EN" "http://www.w3.org/Graphics/SVG/1.1/DTD/svg11.dtd">
<svg version="1.1" id="Calque_1" xmlns="http://www.w3.org/2000/svg" xmlns:xlink="http://www.w3.org/1999/xlink" x="0px" y="0px"
	 width="425.2px" height="425.2px" viewBox="0 0 425.2 425.2" enable-background="new 0 0 425.2 425.2" xml:space="preserve">
<path fill="none" stroke="#010202" stroke-width="10" stroke-linecap="round" stroke-linejoin="round" stroke-miterlimit="10" d="
	M295.586,347.584c0,6.627-5.373,12-12,12H133.595c-6.627,0-12-5.373-12-12v-181.49c0-6.627,5.373-12,12-12h149.991
	c6.627,0,12,5.373,12,12V347.584z"/>
<g>
	<path fill="#010202" d="M207.567,63.922v194.505c0,0.567,0.461,1.028,1.028,1.028c0.569,0,1.028-0.461,1.028-1.028V63.922
		c0-0.568-0.459-1.028-1.028-1.028C208.028,62.895,207.567,63.354,207.567,63.922z"/>
	<g>
		<path fill="#010202" d="M154.712,181.703c2.609-1.667,6.084-0.889,7.751,1.731l46.133,72.43l46.132-72.43
			c1.667-2.62,5.142-3.399,7.751-1.731c2.609,1.666,3.364,5.164,1.721,7.761l-50.869,79.863c-1.029,1.612-2.817,2.601-4.735,2.601
			c-1.918,0-3.706-0.988-4.735-2.601l-50.87-79.863c-0.591-0.944-0.878-1.985-0.878-3.016
			C152.114,184.595,153.034,182.775,154.712,181.703z"/>
	</g>
</g>
<path fill="#010202" d="M203.456,62.551v194.642c0,2.839,2.3,5.14,5.141,5.14c2.838,0,5.14-2.301,5.14-5.14V62.551
	c0-2.838-2.3-5.14-5.14-5.14C205.755,57.411,203.456,59.713,203.456,62.551z"/>
</svg>
